<svg width="57" height="56" viewBox="0 0 57 56" fill="none" xmlns="http://www.w3.org/2000/svg">
<path d="M0.78125 28C0.78125 12.536 13.3173 0 28.7812 0C44.2452 0 56.7812 12.536 56.7812 28C56.7812 43.464 44.2452 56 28.7812 56C13.3173 56 0.78125 43.464 0.78125 28Z" fill="#D1FAE5"/>
<path d="M28.7813 15C26.2101 15 23.6967 15.7624 21.5588 17.1909C19.421 18.6194 17.7548 20.6497 16.7708 23.0251C15.7869 25.4006 15.5294 28.0144 16.031 30.5362C16.5327 33.0579 17.7708 35.3743 19.5889 37.1924C21.407 39.0105 23.7233 40.2486 26.2451 40.7502C28.7668 41.2518 31.3807 40.9944 33.7561 40.0104C36.1316 39.0265 38.1619 37.3603 39.5904 35.2224C41.0188 33.0846 41.7813 30.5712 41.7813 28C41.7776 24.5533 40.4068 21.2488 37.9696 18.8116C35.5324 16.3744 32.228 15.0036 28.7813 15ZM28.7813 39C26.6057 39 24.4789 38.3549 22.67 37.1462C20.861 35.9375 19.4511 34.2195 18.6186 32.2095C17.786 30.1995 17.5682 27.9878 17.9926 25.854C18.4171 23.7202 19.4647 21.7602 21.0031 20.2218C22.5415 18.6834 24.5015 17.6358 26.6353 17.2114C28.7691 16.7869 30.9808 17.0048 32.9908 17.8373C35.0008 18.6699 36.7187 20.0798 37.9274 21.8887C39.1361 23.6977 39.7813 25.8244 39.7813 28C39.7779 30.9164 38.618 33.7123 36.5558 35.7745C34.4936 37.8367 31.6976 38.9967 28.7813 39ZM30.7813 34C30.7813 34.2652 30.6759 34.5196 30.4884 34.7071C30.3008 34.8946 30.0465 35 29.7813 35C29.2508 35 28.7421 34.7893 28.367 34.4142C27.992 34.0391 27.7813 33.5304 27.7813 33V28C27.516 28 27.2617 27.8946 27.0741 27.7071C26.8866 27.5196 26.7813 27.2652 26.7813 27C26.7813 26.7348 26.8866 26.4804 27.0741 26.2929C27.2617 26.1054 27.516 26 27.7813 26C28.3117 26 28.8204 26.2107 29.1955 26.5858C29.5705 26.9609 29.7813 27.4696 29.7813 28V33C30.0465 33 30.3008 33.1054 30.4884 33.2929C30.6759 33.4804 30.7813 33.7348 30.7813 34ZM26.7813 22.5C26.7813 22.2033 26.8692 21.9133 27.0341 21.6666C27.1989 21.42 27.4331 21.2277 27.7072 21.1142C27.9813 21.0006 28.2829 20.9709 28.5739 21.0288C28.8649 21.0867 29.1321 21.2296 29.3419 21.4393C29.5517 21.6491 29.6946 21.9164 29.7524 22.2074C29.8103 22.4983 29.7806 22.7999 29.6671 23.074C29.5535 23.3481 29.3613 23.5824 29.1146 23.7472C28.8679 23.912 28.5779 24 28.2813 24C27.8834 24 27.5019 23.842 27.2206 23.5607C26.9393 23.2794 26.7813 22.8978 26.7813 22.5Z" fill="#047857"/>
</svg>
