<svg width="57" height="56" viewBox="0 0 57 56" fill="none" xmlns="http://www.w3.org/2000/svg">
<path d="M0.09375 28C0.09375 12.536 12.6298 0 28.0938 0C43.5577 0 56.0938 12.536 56.0938 28C56.0938 43.464 43.5577 56 28.0938 56C12.6298 56 0.09375 43.464 0.09375 28Z" fill="#FEF9C3"/>
<path d="M28.0938 15C25.5226 15 23.0092 15.7624 20.8713 17.1909C18.7335 18.6194 17.0673 20.6497 16.0833 23.0251C15.0994 25.4006 14.8419 28.0144 15.3435 30.5362C15.8452 33.0579 17.0833 35.3743 18.9014 37.1924C20.7195 39.0105 23.0358 40.2486 25.5576 40.7502C28.0793 41.2518 30.6932 40.9944 33.0686 40.0104C35.4441 39.0265 37.4744 37.3603 38.9029 35.2224C40.3313 33.0846 41.0938 30.5712 41.0938 28C41.0901 24.5533 39.7193 21.2488 37.2821 18.8116C34.8449 16.3744 31.5405 15.0036 28.0938 15ZM28.0938 39C25.9182 39 23.7914 38.3549 21.9825 37.1462C20.1735 35.9375 18.7636 34.2195 17.9311 32.2095C17.0985 30.1995 16.8807 27.9878 17.3051 25.854C17.7296 23.7202 18.7772 21.7602 20.3156 20.2218C21.854 18.6834 23.814 17.6358 25.9478 17.2114C28.0816 16.7869 30.2933 17.0048 32.3033 17.8373C34.3133 18.6699 36.0312 20.0798 37.2399 21.8887C38.4486 23.6977 39.0938 25.8244 39.0938 28C39.0904 30.9164 37.9305 33.7123 35.8683 35.7745C33.8061 37.8367 31.0101 38.9967 28.0938 39ZM30.0938 34C30.0938 34.2652 29.9884 34.5196 29.8009 34.7071C29.6133 34.8946 29.359 35 29.0938 35C28.5633 35 28.0546 34.7893 27.6795 34.4142C27.3045 34.0391 27.0938 33.5304 27.0938 33V28C26.8285 28 26.5742 27.8946 26.3866 27.7071C26.1991 27.5196 26.0938 27.2652 26.0938 27C26.0938 26.7348 26.1991 26.4804 26.3866 26.2929C26.5742 26.1054 26.8285 26 27.0938 26C27.6242 26 28.1329 26.2107 28.508 26.5858C28.883 26.9609 29.0938 27.4696 29.0938 28V33C29.359 33 29.6133 33.1054 29.8009 33.2929C29.9884 33.4804 30.0938 33.7348 30.0938 34ZM26.0938 22.5C26.0938 22.2033 26.1817 21.9133 26.3466 21.6666C26.5114 21.42 26.7456 21.2277 27.0197 21.1142C27.2938 21.0006 27.5954 20.9709 27.8864 21.0288C28.1774 21.0867 28.4446 21.2296 28.6544 21.4393C28.8642 21.6491 29.0071 21.9164 29.0649 22.2074C29.1228 22.4983 29.0931 22.7999 28.9796 23.074C28.866 23.3481 28.6738 23.5824 28.4271 23.7472C28.1804 23.912 27.8904 24 27.5938 24C27.1959 24 26.8144 23.842 26.5331 23.5607C26.2518 23.2794 26.0938 22.8978 26.0938 22.5Z" fill="#A16207"/>
</svg>
