<?xml version="1.0" standalone="no"?>
<svg version="1.0" xmlns="http://www.w3.org/2000/svg"
 width="1232.000000pt" height="1280.000000pt" viewBox="0 0 1232.000000 1280.000000"
 preserveAspectRatio="xMidYMid meet">
<g transform="translate(0.000000,1280.000000) scale(0.100000,-0.100000)"
fill="#000000" stroke="none">
<path d="M422 12427 l-32 -33 0 -432 c0 -405 1 -432 18 -432 9 0 78 -7 152
-15 522 -60 841 -158 992 -306 103 -101 173 -283 215 -559 16 -108 18 -362 21
-4065 2 -2727 0 -3995 -8 -4095 -23 -324 -85 -548 -190 -686 -121 -161 -445
-274 -955 -334 -99 -12 -195 -23 -213 -26 l-32 -5 0 -432 0 -433 33 -32 33
-32 5636 0 5637 0 5 53 c4 28 60 952 126 2052 66 1100 124 2061 129 2135 l9
135 -26 28 -26 27 -481 0 -481 0 -28 -187 c-189 -1299 -654 -2171 -1421 -2669
-564 -366 -1322 -570 -2324 -625 -244 -13 -953 -7 -1151 10 -392 35 -647 87
-820 169 -237 112 -364 389 -400 877 -6 89 -10 791 -10 1918 l0 1779 498 -5
c540 -4 581 -8 829 -67 389 -93 705 -289 928 -575 266 -341 439 -848 515
-1515 11 -96 20 -178 20 -182 0 -5 193 -8 428 -8 l428 0 27 28 27 28 0 2785 0
2786 -23 21 c-23 22 -26 22 -455 22 -238 0 -432 -3 -432 -7 0 -5 -9 -89 -20
-187 -58 -503 -173 -920 -343 -1238 -89 -168 -176 -287 -302 -414 -263 -264
-589 -412 -1055 -480 -90 -13 -220 -18 -592 -21 l-478 -5 0 1569 c0 939 4
1624 10 1708 28 385 115 645 266 789 131 126 405 208 836 251 317 32 876 41
1188 20 36 -2 108 -7 160 -10 52 -4 176 -15 275 -26 872 -96 1550 -341 2040
-736 128 -103 348 -329 446 -458 342 -449 587 -1029 728 -1720 17 -82 33 -160
36 -172 l5 -23 478 0 478 0 28 29 27 28 -111 1794 c-60 987 -115 1871 -120
1964 -6 94 -13 194 -16 223 l-5 52 -5563 0 -5562 0 -32 -33z"/>
</g>
</svg>
